<svg width="1606" height="1099" viewBox="0 0 1606 1099" fill="none" xmlns="http://www.w3.org/2000/svg">
<g clip-path="url(#clip0_1_2)">
<rect width="1606" height="1099" fill="black"/>
<circle cx="294.5" cy="648.5" r="6.5" fill="#D9D9D9" fill-opacity="0.3"/>
<ellipse cx="1364.5" cy="959.929" rx="6.5" ry="6" fill="#D9D9D9" fill-opacity="0.3"/>
<circle cx="908" cy="177" r="6" fill="#D9D9D9" fill-opacity="0.3"/>
<circle cx="879.114" cy="503.048" r="6.20819" transform="rotate(24.1522 879.114 503.048)" fill="#D9D9D9" fill-opacity="0.3"/>
<circle cx="1550.13" cy="364.836" r="6.20819" transform="rotate(24.1522 1550.13 364.836)" fill="#D9D9D9" fill-opacity="0.3"/>
<ellipse cx="220" cy="740.5" rx="6" ry="6.5" fill="#D9D9D9" fill-opacity="0.3"/>
<circle cx="1340" cy="249" r="3" fill="#D9D9D9"/>
<circle cx="171" cy="150" r="3" fill="#D9D9D9"/>
<circle cx="1321" cy="831.108" r="3" fill="#D9D9D9"/>
<ellipse cx="658" cy="246.5" rx="3" ry="2.5" fill="#D9D9D9"/>
<circle cx="1433" cy="289" r="5" fill="#D9D9D9" fill-opacity="0.3"/>
<circle cx="1352.27" cy="714.424" r="4.98007" transform="rotate(24.1522 1352.27 714.424)" fill="#D9D9D9" fill-opacity="0.3"/>
<circle cx="1357.58" cy="954.454" r="4.98007" transform="rotate(24.1522 1357.58 954.454)" fill="#D9D9D9" fill-opacity="0.3"/>
<circle cx="1515.5" cy="781.608" r="2.5" fill="#D9D9D9"/>
<ellipse cx="1232.5" cy="345" rx="2.5" ry="2" fill="#D9D9D9"/>
<circle cx="1236" cy="104" r="6" fill="#D9D9D9" fill-opacity="0.3"/>
<circle cx="1206.91" cy="430.205" r="6.20819" transform="rotate(24.1522 1206.91 430.205)" fill="#D9D9D9" fill-opacity="0.3"/>
<ellipse cx="1410" cy="514.429" rx="3" ry="2.5" fill="#D9D9D9"/>
<circle cx="986" cy="174" r="3" fill="#D9D9D9"/>
<circle cx="1607" cy="507" r="6" fill="#D9D9D9" fill-opacity="0.3"/>
<ellipse cx="1560.5" cy="272" rx="2.5" ry="2" fill="#D9D9D9"/>
<circle cx="100" cy="383" r="6" fill="#D9D9D9" fill-opacity="0.3"/>
<circle cx="484.238" cy="908.876" r="6.20819" transform="rotate(24.1522 484.238 908.876)" fill="#D9D9D9" fill-opacity="0.3"/>
<ellipse cx="118.5" cy="675" rx="2.5" ry="3" fill="#D9D9D9"/>
<ellipse cx="76" cy="436.5" rx="5" ry="4.5" fill="#D9D9D9" fill-opacity="0.3"/>
<circle cx="55.7957" cy="1045.65" r="6.01634" transform="rotate(24.1522 55.7957 1045.65)" fill="#D9D9D9" fill-opacity="0.3"/>
<circle cx="108.014" cy="239.387" r="6.20819" transform="rotate(24.1522 108.014 239.387)" fill="#D9D9D9" fill-opacity="0.3"/>
<circle cx="304" cy="908.929" r="3" fill="#D9D9D9"/>
<circle cx="546.168" cy="927.515" r="4.98007" transform="rotate(24.1522 546.168 927.515)" fill="#D9D9D9" fill-opacity="0.3"/>
<circle cx="173.5" cy="830.5" r="2.5" fill="#D9D9D9"/>
</g>
<defs>
<clipPath id="clip0_1_2">
<rect width="1606" height="1099" fill="white"/>
</clipPath>
</defs>
</svg>
