<svg width="477" height="214" viewBox="0 0 477 214" fill="none" xmlns="http://www.w3.org/2000/svg">
<g clip-path="url(#clip0_74_54)">
<rect width="477" height="214" fill="black"/>
<rect x="25" y="64" width="99" height="99" rx="10" fill="#292929"/>
<path d="M52.4545 150H43L70.3455 77H79.6545L107 150H97.5455L75.2909 88.5488H74.7091L52.4545 150ZM55.9455 121.484L57.7575 124.566L58.8 129.326H55.9455V121.484Z" fill="url(#paint0_linear_74_54)"/>
<path d="M184.293 150.637V120.211C184.293 117.324 184.03 114.55 183.506 111.888C183.018 109.226 182.138 106.845 180.863 104.745C179.626 102.608 177.939 100.921 175.803 99.6837C173.704 98.4464 171.043 97.8278 167.819 97.8278C165.308 97.8278 163.021 98.2589 160.96 99.1213C158.936 99.9461 157.193 101.221 155.731 102.946C154.269 104.67 153.126 106.845 152.301 109.469C151.514 112.056 151.12 115.112 151.12 118.636L144.542 116.612C144.542 110.725 145.592 105.683 147.691 101.483C149.827 97.2466 152.807 94.0035 156.63 91.7539C160.491 89.4668 165.027 88.3233 170.237 88.3233C174.172 88.3233 177.527 88.9419 180.301 90.1792C183.075 91.4165 185.38 93.0662 187.217 95.1283C189.053 97.1529 190.496 99.44 191.546 101.99C192.595 104.502 193.326 107.07 193.739 109.694C194.188 112.281 194.413 114.737 194.413 117.062V150.637H184.293ZM141 150.637V69.6517H149.996V114.362H151.12V150.637H141Z" fill="url(#paint1_linear_74_54)"/>
<path d="M230.964 154.011C225.004 154.011 219.794 152.699 215.333 150.074C210.91 147.412 207.462 143.719 204.988 138.995C202.514 134.234 201.277 128.685 201.277 122.348C201.277 115.712 202.496 109.976 204.932 105.139C207.368 100.265 210.761 96.5155 215.109 93.891C219.494 91.229 224.629 89.898 230.514 89.898C236.624 89.898 241.815 91.304 246.088 94.116C250.399 96.9279 253.622 100.94 255.759 106.151C257.933 111.363 258.87 117.568 258.57 124.767H248.45V121.167C248.337 113.706 246.819 108.138 243.896 104.464C240.972 100.752 236.624 98.8963 230.851 98.8963C224.667 98.8963 219.963 100.883 216.739 104.858C213.516 108.832 211.904 114.531 211.904 121.955C211.904 129.116 213.516 134.665 216.739 138.601C219.963 142.538 224.554 144.507 230.514 144.507C234.525 144.507 238.011 143.588 240.972 141.751C243.933 139.914 246.257 137.27 247.944 133.821L257.558 137.139C255.197 142.501 251.636 146.662 246.875 149.624C242.153 152.549 236.849 154.011 230.964 154.011ZM208.53 124.767V116.724H253.398V124.767H208.53Z" fill="url(#paint2_linear_74_54)"/>
<path d="M267.635 150.637V67.9645H277.643V150.637H267.635Z" fill="url(#paint3_linear_74_54)"/>
<path d="M314.817 152.324C309.119 152.324 304.322 150.918 300.423 148.106C296.525 145.256 293.564 141.413 291.54 136.577C289.553 131.703 288.56 126.247 288.56 120.211C288.56 114.1 289.553 108.626 291.54 103.789C293.564 98.9526 296.525 95.147 300.423 92.3725C304.359 89.598 309.175 88.2108 314.873 88.2108C320.495 88.2108 325.331 89.6168 329.379 92.4288C333.464 95.2033 336.594 99.0088 338.768 103.845C340.942 108.682 342.029 114.137 342.029 120.211C342.029 126.285 340.942 131.74 338.768 136.577C336.594 141.413 333.464 145.256 329.379 148.106C325.331 150.918 320.477 152.324 314.817 152.324ZM286.873 177.632V89.898H295.813V134.608H296.937V177.632H286.873ZM313.58 143.157C317.59 143.157 320.908 142.145 323.531 140.12C326.155 138.095 328.123 135.358 329.435 131.909C330.747 128.422 331.403 124.523 331.403 120.211C331.403 115.937 330.747 112.075 329.435 108.626C328.161 105.176 326.174 102.439 323.475 100.415C320.814 98.3902 317.422 97.3779 313.299 97.3779C309.363 97.3779 306.102 98.3527 303.516 100.302C300.929 102.214 298.999 104.895 297.724 108.345C296.45 111.756 295.813 115.712 295.813 120.211C295.813 124.635 296.431 128.591 297.668 132.078C298.943 135.527 300.892 138.245 303.516 140.232C306.139 142.182 309.494 143.157 313.58 143.157Z" fill="url(#paint4_linear_74_54)"/>
<path d="M359.696 150.637L386.796 69.6517H400.74L427.84 150.637H417.438L392.081 75.5006H395.23L370.097 150.637H359.696ZM372.74 131.684V122.292L376.695 123.825L375.06 125.787L372.74 131.684Z" fill="url(#paint5_linear_74_54)"/>
<path d="M436.012 79.1563V68.8082H446.02V79.1563H436.012ZM436.012 150.637V120.267V89.8981H446.02V150.637H436.012Z" fill="url(#paint6_linear_74_54)"/>
<rect x="433.041" y="65.3487" width="18.9594" height="15.6948" fill="black"/>
<ellipse cx="348.703" cy="143.823" rx="4.57641" ry="4.57764" fill="#B686A9"/>
<path d="M438.326 74.4604L440.749 66.2207L443.171 74.4604L451.347 76.9018L443.171 79.3433L440.749 87.583L438.326 79.3433L430.151 76.9018L438.326 74.4604ZM428.637 67.4414L422.581 70.7983L425.911 64.6948L422.581 58.5913L428.637 61.9482L434.693 58.5913L431.362 64.6948L434.693 70.7983L428.637 67.4414ZM439.235 64.6948L441.808 60.1172L439.235 55.5395L443.777 58.1335L448.319 55.5395L445.745 60.1172L448.319 64.6948L443.777 62.1008L439.235 64.6948Z" fill="#FFBCBC"/>
<rect x="421.927" y="56.1934" width="13.7292" height="16.3487" fill="black"/>
<path d="M438.271 49H452V65.3487L445.462 67.6375L438.271 65.6757V49Z" fill="black"/>
</g>
<defs>
<linearGradient id="paint0_linear_74_54" x1="75.0172" y1="52.8043" x2="75.0172" y2="174.299" gradientUnits="userSpaceOnUse">
<stop stop-color="#2C99FF"/>
<stop offset="1" stop-color="#FFBCBC"/>
</linearGradient>
<linearGradient id="paint1_linear_74_54" x1="199.317" y1="130.09" x2="418.99" y2="82.3759" gradientUnits="userSpaceOnUse">
<stop stop-color="#2C9AFF"/>
<stop offset="1" stop-color="#FF7D7D"/>
</linearGradient>
<linearGradient id="paint2_linear_74_54" x1="199.317" y1="130.09" x2="418.99" y2="82.3759" gradientUnits="userSpaceOnUse">
<stop stop-color="#2C9AFF"/>
<stop offset="1" stop-color="#FF7D7D"/>
</linearGradient>
<linearGradient id="paint3_linear_74_54" x1="199.317" y1="130.09" x2="418.99" y2="82.3759" gradientUnits="userSpaceOnUse">
<stop stop-color="#2C9AFF"/>
<stop offset="1" stop-color="#FF7D7D"/>
</linearGradient>
<linearGradient id="paint4_linear_74_54" x1="199.317" y1="130.09" x2="418.99" y2="82.3759" gradientUnits="userSpaceOnUse">
<stop stop-color="#2C9AFF"/>
<stop offset="1" stop-color="#FF7D7D"/>
</linearGradient>
<linearGradient id="paint5_linear_74_54" x1="199.317" y1="130.09" x2="418.99" y2="82.3759" gradientUnits="userSpaceOnUse">
<stop stop-color="#2C9AFF"/>
<stop offset="1" stop-color="#FF7D7D"/>
</linearGradient>
<linearGradient id="paint6_linear_74_54" x1="199.317" y1="130.09" x2="418.99" y2="82.3759" gradientUnits="userSpaceOnUse">
<stop stop-color="#2C9AFF"/>
<stop offset="1" stop-color="#FF7D7D"/>
</linearGradient>
<clipPath id="clip0_74_54">
<rect width="477" height="214" fill="white"/>
</clipPath>
</defs>
</svg>
